<?xml version="1.0" encoding="UTF-8" standalone="no"?>
<!-- Created with Inkscape (http://www.inkscape.org/) -->

<svg
   width="49.68539mm"
   height="49.54829mm"
   viewBox="0 0 49.68539 49.54829"
   version="1.1"
   id="svg1"
   xml:space="preserve"
   inkscape:version="1.3.2 (091e20e, 2023-11-25, custom)"
   sodipodi:docname="pause.svg"
   xmlns:inkscape="http://www.inkscape.org/namespaces/inkscape"
   xmlns:sodipodi="http://sodipodi.sourceforge.net/DTD/sodipodi-0.dtd"
   xmlns="http://www.w3.org/2000/svg"
   xmlns:svg="http://www.w3.org/2000/svg"><sodipodi:namedview
     id="namedview1"
     pagecolor="#ffffff"
     bordercolor="#eeeeee"
     borderopacity="1"
     inkscape:showpageshadow="0"
     inkscape:pageopacity="0"
     inkscape:pagecheckerboard="0"
     inkscape:deskcolor="#505050"
     inkscape:document-units="mm"
     inkscape:zoom="2.701132"
     inkscape:cx="94.034648"
     inkscape:cy="95.515509"
     inkscape:window-width="1366"
     inkscape:window-height="745"
     inkscape:window-x="-8"
     inkscape:window-y="-8"
     inkscape:window-maximized="1"
     inkscape:current-layer="layer1" /><defs
     id="defs1"><inkscape:path-effect
       effect="bspline"
       id="path-effect2"
       is_visible="true"
       lpeversion="1.3"
       weight="33.333333"
       steps="2"
       helper_size="0"
       apply_no_weight="true"
       apply_with_weight="true"
       only_selected="false"
       uniform="false" /><inkscape:path-effect
       effect="bspline"
       id="path-effect1"
       is_visible="true"
       lpeversion="1.3"
       weight="33.333333"
       steps="2"
       helper_size="0"
       apply_no_weight="true"
       apply_with_weight="true"
       only_selected="false"
       uniform="false" /></defs><g
     inkscape:label="Capa 1"
     inkscape:groupmode="layer"
     id="layer1"
     transform="translate(-80.107135,-123.76616)"><path
       style="fill:#000000;stroke:#000000;stroke-width:0.264583"
       d="m 129.59501,149.6513 c 0.12698,-1.84702 0.0616,-3.12685 -0.13274,-4.49403 -0.19432,-1.36719 -0.51754,-2.82168 -1.03702,-4.4032 -0.51948,-1.58153 -1.23519,-3.28999 -1.90473,-4.60599 -0.66955,-1.31601 -1.29291,-2.2395 -1.90474,-2.98985 -0.61183,-0.75036 -1.2121,-1.32754 -2.13562,-2.13562 -0.92352,-0.80808 -2.17023,-1.84701 -3.41698,-2.73589 -1.24674,-0.88888 -2.49345,-1.62767 -3.77483,-2.20487 -1.28138,-0.57719 -2.59735,-0.99276 -4.28278,-1.37371 -1.68542,-0.38095 -3.74018,-0.72726 -5.795,-0.79652 -2.05483,-0.0693 -4.10959,0.13852 -5.910445,0.54256 -1.800855,0.40404 -3.3477,1.00431 -4.698341,1.66231 -1.350641,0.65801 -2.505001,1.37371 -3.705575,2.22797 -1.200573,0.85425 -2.447282,1.847 -3.659398,3.09375 -1.212116,1.24675 -2.389564,2.74742 -3.324622,4.20196 -0.935058,1.45454 -1.627674,2.86286 -2.181782,4.4213 -0.554108,1.55843 -0.969679,3.26689 -1.212101,4.66371 -0.242422,1.39681 -0.311684,2.48191 -0.265507,3.7402 0.04618,1.25829 0.207787,2.6897 0.404035,4.05189 0.196248,1.36219 0.42712,2.65507 0.796529,3.83255 0.36941,1.17749 0.877328,2.2395 1.362174,3.22073 0.484846,0.98124 0.94659,1.88164 1.466067,2.67817 0.519478,0.79653 1.09666,1.48915 1.893195,2.38958 0.796535,0.90043 1.812373,2.00862 3.04758,3.01294 1.235207,1.00433 2.6897,1.90473 4.144239,2.71281 1.454539,0.80807 2.909036,1.52377 4.698352,2.00862 1.789316,0.48484 3.91334,0.7388 5.95662,0.79652 2.04328,0.0577 4.00569,-0.0808 5.66802,-0.34632 1.66233,-0.26551 3.02447,-0.65799 4.36357,-1.2121 1.3391,-0.55411 2.65507,-1.26982 3.77483,-1.92783 1.11977,-0.658 2.04326,-1.25827 3.0245,-2.0548 0.98123,-0.79654 2.02016,-1.78929 2.97831,-2.87443 0.95814,-1.08513 1.83545,-2.26257 2.65508,-3.68248 0.81962,-1.41991 1.58149,-3.08219 2.12213,-5.12048 0.54064,-2.03828 0.86,-4.45244 0.98698,-6.29945 z"
       id="path1"
       inkscape:path-effect="#path-effect1"
       inkscape:original-d="m 129.7874,149.0841 c -0.0654,-1.27982 -0.13081,-2.55965 -0.19622,-3.83946 -0.32323,-1.45456 -0.64645,-2.90905 -0.96968,-4.36358 -0.71573,-1.70852 -1.43144,-3.41698 -2.14715,-5.12546 -0.62338,-0.92353 -1.24674,-1.84702 -1.87011,-2.77053 -0.60029,-0.5772 -1.20056,-1.15438 -1.80084,-1.73157 -1.24676,-1.03897 -2.49347,-2.0779 -3.7402,-3.11684 -1.24676,-0.73882 -2.49347,-1.47761 -3.74021,-2.21642 -1.31602,-0.41558 -2.63199,-0.83116 -3.94799,-1.24673 -2.05485,-0.34633 -4.10961,-0.69263 -6.16441,-1.03895 -2.05485,0.20779 -4.10961,0.41558 -6.164416,0.62337 -1.546905,0.60029 -3.093749,1.20056 -4.640625,1.80084 -1.154406,0.71573 -2.308767,1.43143 -3.463152,2.14715 -1.246762,0.99279 -2.49347,1.98554 -3.740206,2.97831 -1.177496,1.50073 -2.354945,3.0014 -3.532415,4.5021 -0.692644,1.40838 -1.385263,2.8167 -2.077891,4.22505 -0.415589,1.70852 -0.831157,3.41698 -1.246736,5.12547 -0.06927,1.08514 -0.138528,2.17024 -0.20779,3.25536 0.161618,1.43146 0.323228,2.86287 0.484841,4.29431 0.230883,1.29294 0.461753,2.58582 0.692631,3.87873 0.50794,1.06206 1.015857,2.12407 1.523789,3.1861 0.461761,0.90044 0.923507,1.80084 1.38526,2.70126 0.577205,0.69264 1.154385,1.38526 1.731576,2.07789 1.015879,1.10823 2.031717,2.21642 3.047574,3.32463 1.454555,0.90044 2.909049,1.80084 4.363575,2.70126 1.454552,0.71573 2.909046,1.43144 4.363571,2.14715 2.12411,0.25397 4.248134,0.50793 6.372204,0.7619 1.96249,-0.13853 3.9249,-0.27705 5.88736,-0.41558 1.3622,-0.3925 2.72434,-0.78498 4.08652,-1.17747 1.31602,-0.71574 2.63199,-1.43144 3.94799,-2.14716 0.92353,-0.60029 1.84702,-1.20056 2.77053,-1.80084 1.03896,-0.99279 2.07789,-1.98554 3.11683,-2.97831 0.87735,-1.1775 1.75467,-2.35494 2.632,-3.53242 0.76191,-1.66234 1.52379,-3.32462 2.28568,-4.98694 0.31938,-2.41425 0.63874,-4.82841 0.95811,-7.24262 z" /><path
       style="display:inline;fill:#ffffff;stroke:#000000;stroke-width:0.264583"
       d="m 124.84666,148.61544 c -0.0346,0.66954 -0.10389,2.00862 -0.32323,3.33618 -0.21933,1.32756 -0.58873,2.64353 -1.07358,3.90182 -0.48484,1.25829 -1.08511,2.45883 -1.85856,3.61322 -0.77345,1.15439 -1.72002,2.26258 -2.70126,3.20918 -0.98124,0.94661 -1.99707,1.73158 -3.03603,2.40113 -1.03896,0.66955 -2.10097,1.22364 -3.3708,1.77775 -1.26984,0.5541 -2.74743,1.1082 -4.42131,1.3968 -1.67387,0.2886 -3.54393,0.3117 -5.35634,0.0924 -1.8124,-0.21933 -3.567027,-0.68108 -5.125459,-1.26982 -1.558433,-0.58875 -2.920576,-1.30445 -4.086514,-2.14716 -1.165938,-0.84271 -2.135604,-1.81238 -3.128385,-2.98986 -0.992781,-1.17749 -2.008617,-2.56272 -2.828237,-4.10961 -0.81962,-1.5469 -1.442973,-3.25535 -1.800833,-4.99849 -0.35786,-1.74314 -0.450209,-3.52085 -0.392488,-5.17163 0.05772,-1.65079 0.265507,-3.17455 0.854254,-4.88306 0.588746,-1.70851 1.558409,-3.60166 2.539644,-5.137 0.981236,-1.53534 1.973988,-2.71279 3.012944,-3.69402 1.038957,-0.98124 2.124054,-1.7662 3.22073,-2.43575 1.096676,-0.66955 2.204868,-1.22365 3.416983,-1.6854 1.212115,-0.46176 2.528091,-0.83116 4.086531,-1.01586 1.55843,-0.1847 3.35923,-0.1847 5.0331,0.0462 1.67388,0.23088 3.22072,0.69263 4.59445,1.20056 1.37373,0.50793 2.57427,1.06203 3.78639,1.84702 1.21211,0.78499 2.43573,1.80083 3.57858,3.02449 1.14286,1.22367 2.20487,2.65507 3.03603,4.1327 0.83116,1.47763 1.43143,3.00138 1.78929,4.49055 0.35786,1.48917 0.47329,2.94367 0.53101,3.67093 0.0577,0.72726 0.0577,0.72723 0.0231,1.39678 z"
       id="path2"
       inkscape:path-effect="#path-effect2"
       inkscape:original-d="m 124.88129,147.94589 c -0.0693,1.33909 -0.13852,2.67817 -0.20778,4.01726 -0.36941,1.31603 -0.73881,2.632 -1.10821,3.948 -0.6003,1.20058 -1.20056,2.40112 -1.80084,3.60167 -0.94662,1.10823 -1.89319,2.21642 -2.83979,3.32463 -1.01588,0.785 -2.03172,1.56996 -3.04757,2.35495 -1.06206,0.55411 -2.12407,1.10821 -3.1861,1.66231 -1.47764,0.55411 -2.95523,1.10821 -4.43284,1.66231 -1.87014,0.0231 -3.7402,0.0462 -5.61031,0.0693 -1.7547,-0.46177 -3.509326,-0.92351 -5.263989,-1.38526 -1.3622,-0.71574 -2.724346,-1.43144 -4.086522,-2.14716 -0.9697,-0.9697 -1.939364,-1.93937 -2.909048,-2.90905 -1.015879,-1.38529 -2.031715,-2.77052 -3.047574,-4.15578 -0.62338,-1.70853 -1.246735,-3.41698 -1.870102,-5.12547 -0.09235,-1.77779 -0.184703,-3.5555 -0.277053,-5.33325 0.207793,-1.52382 0.415579,-3.04758 0.623369,-4.57137 0.969701,-1.89323 1.939364,-3.78638 2.909049,-5.67957 0.992788,-1.17749 1.985539,-2.35494 2.978311,-3.53241 1.085141,-0.785 2.170242,-1.56996 3.255362,-2.35495 1.108231,-0.55411 2.21642,-1.10821 3.324627,-1.66231 1.316024,-0.36941 2.632,-0.73881 3.948,-1.10821 1.80087,0 3.60167,0 5.40251,0 1.54691,0.46176 3.09375,0.92351 4.64063,1.38526 1.20058,0.55412 2.40112,1.10821 3.60168,1.66231 1.22367,1.01588 2.44729,2.03172 3.67094,3.04758 1.06205,1.43147 2.12407,2.86287 3.1861,4.29431 0.60029,1.52382 1.20056,3.04757 1.80084,4.57136 0.11544,1.45455 0.23088,2.90905 0.34631,4.36357 z"
       transform="matrix(1.0208913,0,0,1.0172692,-2.2649273,-2.6351476)" /><path
       style="fill:#000000;stroke:#000000;stroke-width:0.264583"
       d="m 97.453123,138.52612 5.125467,-0.0693 -0.0693,20.01702 h -4.986944 z"
       id="path3" /><path
       style="fill:#000000;stroke:#000000;stroke-width:0.264583"
       d="m 107.49627,138.66465 5.12546,-0.0693 -0.0693,20.01702 h -4.98694 z"
       id="path4" /></g></svg>
