<?xml version="1.0" encoding="UTF-8" standalone="no"?>
<!-- Created with Inkscape (http://www.inkscape.org/) -->

<svg
   width="33.518021mm"
   height="33.650768mm"
   viewBox="0 0 33.518021 33.650768"
   version="1.1"
   id="svg1"
   xml:space="preserve"
   inkscape:version="1.3.2 (091e20e, 2023-11-25, custom)"
   sodipodi:docname="play.svg"
   xmlns:inkscape="http://www.inkscape.org/namespaces/inkscape"
   xmlns:sodipodi="http://sodipodi.sourceforge.net/DTD/sodipodi-0.dtd"
   xmlns="http://www.w3.org/2000/svg"
   xmlns:svg="http://www.w3.org/2000/svg"><sodipodi:namedview
     id="namedview1"
     pagecolor="#ffffff"
     bordercolor="#eeeeee"
     borderopacity="1"
     inkscape:showpageshadow="0"
     inkscape:pageopacity="0"
     inkscape:pagecheckerboard="0"
     inkscape:deskcolor="#505050"
     inkscape:document-units="mm"
     inkscape:zoom="1.350566"
     inkscape:cx="158.08187"
     inkscape:cy="91.813357"
     inkscape:window-width="1366"
     inkscape:window-height="745"
     inkscape:window-x="-8"
     inkscape:window-y="-8"
     inkscape:window-maximized="1"
     inkscape:current-layer="layer1" /><defs
     id="defs1"><inkscape:path-effect
       effect="bspline"
       id="path-effect2"
       is_visible="true"
       lpeversion="1.3"
       weight="33.333333"
       steps="2"
       helper_size="0"
       apply_no_weight="true"
       apply_with_weight="true"
       only_selected="false"
       uniform="false" /><inkscape:path-effect
       effect="bspline"
       id="path-effect1"
       is_visible="true"
       lpeversion="1.3"
       weight="33.333333"
       steps="2"
       helper_size="0"
       apply_no_weight="true"
       apply_with_weight="true"
       only_selected="false"
       uniform="false" /></defs><g
     inkscape:label="Capa 1"
     inkscape:groupmode="layer"
     id="layer1"
     transform="translate(-88.295869,-131.66658)"><path
       style="fill:#000000;stroke:#000000;stroke-width:0.264583"
       d="m 121.6178,146.59378 c -0.049,-0.30201 -0.14693,-0.90607 -0.2857,-1.57542 -0.13876,-0.66935 -0.31834,-1.40398 -0.59588,-2.15496 -0.27753,-0.75098 -0.65301,-1.51826 -0.97952,-2.13047 -0.32651,-0.61221 -0.60404,-1.06931 -0.8979,-1.53459 -0.29386,-0.46528 -0.60404,-0.93871 -0.93055,-1.36318 -0.32651,-0.42446 -0.66934,-0.79994 -1.12646,-1.23257 -0.45712,-0.43263 -1.0285,-0.92238 -1.64071,-1.3795 -0.61221,-0.45712 -1.26522,-0.88157 -1.9264,-1.25706 -0.66119,-0.37549 -1.33052,-0.70199 -2.05701,-0.99585 -0.72649,-0.29386 -1.5101,-0.55506 -2.26108,-0.74281 -0.75098,-0.18774 -1.46928,-0.30202 -2.35086,-0.36733 -0.88159,-0.0653 -1.9264,-0.0816 -2.89777,-0.0327 -0.97138,0.049 -1.86926,0.16324 -2.60391,0.33466 -0.73466,0.17142 -1.306034,0.39997 -2.171296,0.79179 -0.865262,0.39182 -2.024344,0.94687 -3.142649,1.68153 -1.118305,0.73465 -2.195766,1.64886 -3.11,2.64472 -0.914233,0.99587 -1.665189,2.07333 -2.212093,3.02837 -0.546905,0.95505 -0.889733,1.78763 -1.159106,2.59575 -0.269373,0.80812 -0.465275,1.59173 -0.579553,2.42433 -0.114278,0.83261 -0.146927,1.71417 -0.195904,2.59575 -0.04898,0.88158 -0.114277,1.76314 -0.0082,2.77533 0.106118,1.01219 0.383645,2.15495 0.734647,3.21612 0.351002,1.06116 0.775455,2.04067 1.297876,2.95491 0.522421,0.91423 1.142773,1.76313 1.852939,2.54676 0.710166,0.78363 1.5101,1.50194 2.440661,2.22027 0.930561,0.71832 1.991696,1.43663 3.142653,1.98354 1.150958,0.5469 2.391664,0.92238 3.697714,1.19175 1.30605,0.26937 2.67736,0.43262 4.08953,0.35099 1.41217,-0.0816 2.8651,-0.40813 4.1385,-0.80811 1.2734,-0.39998 2.36718,-0.8734 3.37937,-1.46113 1.01219,-0.58772 1.94272,-1.2897 2.88144,-2.17945 0.93873,-0.88975 1.88558,-1.96721 2.71819,-3.2651 0.83261,-1.29789 1.55091,-2.81613 2.00803,-4.2038 0.45711,-1.38768 0.65301,-2.64471 0.7428,-3.68138 0.0898,-1.03668 0.0735,-1.85294 0.0653,-2.26108 -0.008,-0.40813 -0.008,-0.4081 -0.0571,-0.71012 z"
       id="path1"
       inkscape:path-effect="#path-effect1"
       inkscape:original-d="m 121.66678,146.8958 c -0.0979,-0.60404 -0.1959,-1.20809 -0.29386,-1.81213 -0.17958,-0.73466 -0.35916,-1.46929 -0.53874,-2.20394 -0.37549,-0.76731 -0.75097,-1.53459 -1.12645,-2.30188 -0.27754,-0.45713 -0.55507,-0.91423 -0.8326,-1.37134 -0.31019,-0.47345 -0.62037,-0.94688 -0.93055,-1.42032 -0.34284,-0.37549 -0.68567,-0.75097 -1.02851,-1.12646 -0.5714,-0.48977 -1.14278,-0.97952 -1.71417,-1.46929 -0.65303,-0.42447 -1.30604,-0.84892 -1.95905,-1.27338 -0.66936,-0.32652 -1.33869,-0.65302 -2.00804,-0.97953 -0.78363,-0.26121 -1.56724,-0.52241 -2.35086,-0.78362 -0.71834,-0.11428 -1.43664,-0.22856 -2.15496,-0.34284 -1.04485,-0.0163 -2.08966,-0.0326 -3.13449,-0.049 -0.89792,0.11428 -1.7958,0.22855 -2.6937,0.34283 -0.57141,0.22856 -1.142785,0.45711 -1.714176,0.68567 -1.159131,0.55508 -2.318215,1.11013 -3.477323,1.6652 -1.077502,0.91424 -2.15496,1.82845 -3.232441,2.74267 -0.750986,1.07751 -1.501942,2.15497 -2.252913,3.23245 -0.342842,0.83261 -0.685669,1.66519 -1.028504,2.49779 -0.195909,0.78364 -0.391811,1.56725 -0.587717,2.35087 -0.03265,0.88159 -0.0653,1.76315 -0.09795,2.64472 -0.0653,0.88159 -0.130604,1.76315 -0.195906,2.64473 0.277539,1.1428 0.555066,2.28556 0.832598,3.42834 0.424471,0.97955 0.848925,1.95906 1.273386,2.93859 0.62038,0.84894 1.240735,1.69784 1.861103,2.54677 0.799963,0.71833 1.599895,1.43664 2.399842,2.15496 1.061177,0.71833 2.12231,1.43664 3.183465,2.15496 1.24076,0.37549 2.481466,0.75097 3.722206,1.12645 1.37136,0.16326 2.74267,0.32651 4.11401,0.48977 1.453,-0.32652 2.90593,-0.65302 4.3589,-0.97953 1.09383,-0.47345 2.18761,-0.94688 3.28142,-1.42031 0.93057,-0.70201 1.8611,-1.40399 2.79165,-2.10599 0.9469,-1.0775 1.89375,-2.15496 2.84063,-3.23244 0.71834,-1.5183 1.43664,-3.03654 2.15496,-4.5548 0.19591,-1.25709 0.39181,-2.51412 0.58772,-3.77118 -0.0163,-0.81629 -0.0327,-1.63255 -0.049,-2.44882 z" /><path
       style="fill:#ffffff;stroke:#000000;stroke-width:0.264583"
       d="m 119.04655,148.63446 c 0.0571,-1.1183 -0.008,-1.91824 -0.16326,-2.77534 -0.15509,-0.85709 -0.39997,-1.7713 -0.7673,-2.64472 -0.36733,-0.87342 -0.85708,-1.706 -1.44481,-2.52228 -0.58772,-0.81629 -1.27338,-1.61622 -1.9917,-2.29373 -0.71833,-0.67751 -1.46929,-1.23257 -2.5223,-1.82029 -1.053,-0.58772 -2.40798,-1.20807 -3.86913,-1.5754 -1.46114,-0.36732 -3.02836,-0.4816 -4.41603,-0.40813 -1.38768,0.0735 -2.59574,0.33466 -3.72221,0.7673 -1.126463,0.43263 -2.171271,1.03666 -3.15897,1.7305 -0.987699,0.69384 -1.918229,1.47744 -2.718183,2.41617 -0.799955,0.93872 -1.469289,2.03251 -1.950893,2.99572 -0.481603,0.96321 -0.775455,1.79579 -0.979524,2.70187 -0.20407,0.90607 -0.318345,1.88557 -0.310181,3.02021 0.0082,1.13463 0.138764,2.42431 0.342835,3.55078 0.204072,1.12647 0.481599,2.08965 0.938718,2.99572 0.457119,0.90607 1.093801,1.75498 1.738663,2.55493 0.644862,0.79996 1.297868,1.55092 2.097824,2.2121 0.799955,0.66119 1.746814,1.23257 2.799817,1.7305 1.053004,0.49793 2.212084,0.92238 3.469154,1.13462 1.25708,0.21223 2.61207,0.21223 4.04056,0.0245 1.42849,-0.18774 2.93041,-0.56322 4.26911,-1.15911 1.3387,-0.59589 2.51411,-1.41215 3.53446,-2.33454 1.02034,-0.9224 1.88558,-1.95089 2.58758,-3.02022 0.702,-1.06933 1.24073,-2.17944 1.59989,-3.45284 0.35916,-1.2734 0.53874,-2.71001 0.59588,-3.8283 z"
       id="path2"
       inkscape:path-effect="#path-effect2"
       inkscape:original-d="m 119.16899,148.31611 c -0.0653,-0.79995 -0.13061,-1.59989 -0.19591,-2.39984 -0.24489,-0.91424 -0.48976,-1.82845 -0.73464,-2.74268 -0.48978,-0.83261 -0.97953,-1.66519 -1.4693,-2.49779 -0.68568,-0.79997 -1.37133,-1.5999 -2.057,-2.39984 -0.75099,-0.55508 -1.50195,-1.11014 -2.25292,-1.6652 -1.35504,-0.62038 -2.71002,-1.24074 -4.06504,-1.8611 -1.56727,-0.11428 -3.13449,-0.22856 -4.70173,-0.34284 -1.20811,0.26121 -2.41617,0.52242 -3.62425,0.78362 -1.044851,0.60406 -2.08966,1.20809 -3.134489,1.81213 -0.93057,0.78364 -1.861103,1.56724 -2.791654,2.35087 -0.669357,1.09382 -1.338688,2.18761 -2.008031,3.28141 -0.293864,0.83262 -0.587717,1.6652 -0.881575,2.4978 -0.114281,0.97955 -0.228557,1.95905 -0.342835,2.93858 0.130606,1.28974 0.261207,2.57942 0.391811,3.86914 0.277539,0.96322 0.555066,1.9264 0.832599,2.8896 0.636705,0.84894 1.273385,1.69785 1.910078,2.54677 0.653032,0.75099 1.306037,1.50195 1.959056,2.25292 0.946895,0.5714 1.893753,1.14278 2.840629,1.71417 1.159131,0.42447 2.318211,0.84892 3.477321,1.27339 1.35504,0 2.71003,0 4.06504,0 1.50197,-0.3755 3.00389,-0.75098 4.50583,-1.12646 1.17546,-0.81629 2.35087,-1.63255 3.5263,-2.44882 0.86526,-1.02852 1.7305,-2.05701 2.59575,-3.08551 0.53875,-1.11016 1.07748,-2.22027 1.61622,-3.3304 0.17958,-1.43667 0.35916,-2.87328 0.53874,-4.30992 z" /><path
       style="fill:#000000;stroke:#000000;stroke-width:0.264583"
       d="m 102.71292,141.55737 c -0.1306,-0.14693 -0.2612,-0.29386 -0.39181,-0.44078 -0.22856,-0.0653 -0.45711,-0.13061 -0.68567,-0.19591 -0.11428,0.13061 -0.22855,0.26121 -0.34283,0.39181 0.0327,0.39182 0.14693,13.71339 0.14693,13.71339 0,0 0.0653,0.42446 0.098,0.63669 0.14693,0.049 0.29386,0.098 0.44079,0.14693 0.17958,0 0.35916,0 0.53874,0 0.22856,-0.19591 0.45711,-0.39181 0.68567,-0.58772 0.0979,-0.13061 7.19953,-6.26898 7.19953,-6.26898 0,0 0.2612,-0.1959 0.39181,-0.29385 0,-0.11428 0,-0.22856 0,-0.34284 -0.29387,-0.24488 -0.58772,-0.48976 -0.88158,-0.73464 -0.24488,-0.17959 -7.19953,-6.0241 -7.19953,-6.0241 z"
       id="path3" /></g></svg>
