<?xml version="1.0" encoding="UTF-8" standalone="no"?>
<!-- Created with Inkscape (http://www.inkscape.org/) -->

<svg
   width="42.618649mm"
   height="43.506378mm"
   viewBox="0 0 42.618648 43.506378"
   version="1.1"
   id="svg1"
   xml:space="preserve"
   inkscape:version="1.3.2 (091e20e, 2023-11-25, custom)"
   sodipodi:docname="volumMinim.svg"
   inkscape:export-filename="volume2.svg"
   inkscape:export-xdpi="96"
   inkscape:export-ydpi="96"
   xmlns:inkscape="http://www.inkscape.org/namespaces/inkscape"
   xmlns:sodipodi="http://sodipodi.sourceforge.net/DTD/sodipodi-0.dtd"
   xmlns="http://www.w3.org/2000/svg"
   xmlns:svg="http://www.w3.org/2000/svg"><sodipodi:namedview
     id="namedview1"
     pagecolor="#ffffff"
     bordercolor="#eeeeee"
     borderopacity="1"
     inkscape:showpageshadow="0"
     inkscape:pageopacity="0"
     inkscape:pagecheckerboard="0"
     inkscape:deskcolor="#505050"
     inkscape:document-units="mm"
     inkscape:zoom="2.701132"
     inkscape:cx="136.97961"
     inkscape:cy="111.61987"
     inkscape:window-width="1920"
     inkscape:window-height="1051"
     inkscape:window-x="-9"
     inkscape:window-y="-9"
     inkscape:window-maximized="1"
     inkscape:current-layer="layer1" /><defs
     id="defs1"><inkscape:path-effect
       effect="bspline"
       id="path-effect3"
       is_visible="true"
       lpeversion="1.3"
       weight="33.333333"
       steps="2"
       helper_size="0"
       apply_no_weight="true"
       apply_with_weight="true"
       only_selected="false"
       uniform="false" /><inkscape:path-effect
       effect="bspline"
       id="path-effect1"
       is_visible="true"
       lpeversion="1.3"
       weight="33.333333"
       steps="2"
       helper_size="0"
       apply_no_weight="true"
       apply_with_weight="true"
       only_selected="false"
       uniform="false" /></defs><g
     inkscape:label="Capa 1"
     inkscape:groupmode="layer"
     id="layer1"
     transform="translate(-75.487061,-126.42267)"><path
       style="fill:#000000;stroke:#000000;stroke-width:0.264583"
       d="m 102.73611,135.19113 c -0.0163,6.67711 -0.049,20.03134 -0.0817,33.38556 -0.29386,0.39181 -0.58772,0.78363 -0.91422,1.02851 -0.32651,0.24488 -0.68568,0.34284 -1.15912,0.3755 -0.47344,0.0327 -1.061151,2e-5 -1.483735,-0.14924 -0.422584,-0.14926 -8.131955,-8.1114 -12.115367,-12.22542 0,0 -9.795275,0.0979 -9.795275,0.0979 -0.35916,-0.19591 -0.718319,-0.39181 -1.012178,-0.66935 -0.29386,-0.27753 -0.522415,-0.63669 -0.637869,-0.99617 -0.115454,-0.35947 -0.178402,-9.99086 -0.211052,-14.98645 0.130604,-0.42446 0.261205,-0.84892 0.555069,-1.17544 0.293864,-0.32651 0.750966,-0.55506 2.611418,-0.6034 1.860452,-0.0483 5.061544,0.081 8.293985,0.2116 0,0 12.440002,-12.53796 12.440002,-12.53796 0.359157,-0.0979 0.71832,-0.1959 1.093812,-0.1959 0.37549,0 0.76729,0.0979 1.14278,0.27753 0.37548,0.17958 0.73464,0.44079 0.94687,0.702 0.21223,0.26121 0.27753,0.52241 0.31018,0.65302 0.0327,0.1306 0.0327,0.1306 0.0164,6.80771 z"
       id="path1"
       inkscape:path-effect="#path-effect1"
       inkscape:original-d="m 102.75244,128.51402 c -0.0327,13.35422 -0.098,40.06267 -0.098,40.06267 0,0 -0.58772,0.78363 -0.88158,1.17544 -0.35916,0.0979 -0.71832,0.19591 -1.07748,0.29386 -0.58772,-0.0327 -1.175429,-0.0653 -1.763146,-0.0979 -0.22856,-0.29387 -11.950236,-12.34205 -11.950236,-12.34205 l -9.795275,0.0979 c 0,0 -0.71832,-0.39181 -1.077481,-0.58772 -0.22856,-0.35916 -0.457113,-0.71832 -0.685668,-1.07748 -0.09796,-0.35917 -0.09795,-14.98677 -0.09795,-14.98677 0,0 0.261207,-0.84892 0.391811,-1.27339 0.457123,-0.22856 0.914225,-0.45711 1.371338,-0.68567 3.265159,0.098 9.697323,0.39182 9.697323,0.39182 l 12.440002,-12.53796 c 0,0 0.71832,-0.1959 1.077472,-0.29385 0.39182,0.098 0.78363,0.1959 1.17544,0.29385 0.35916,0.26122 0.71832,0.52242 1.07748,0.78363 0.0653,0.26121 0.1306,0.52241 0.1959,0.78362 z"
       transform="translate(0.29385828,-0.19590547)" /><path
       style="fill:#000000;stroke-width:0.264583"
       d="m 113.44946,142.42211 c 0.0115,-0.0115 2.74744,-2.67818 2.74744,-2.67818 0.16162,-0.13853 0.32323,-0.27705 0.55411,-0.38095 0.23089,-0.1039 0.53101,-0.17315 0.78109,-0.20995 0.25007,-0.0368 0.45009,-0.0411 0.68069,0.022 0.23061,0.0631 0.49181,0.19374 0.67752,0.31822 0.1857,0.12448 0.29589,0.24284 0.40813,0.38365 0.11224,0.14081 0.22652,0.30406 0.32447,0.51017 0.098,0.2061 0.17958,0.45507 0.21836,0.67546 0.0388,0.2204 0.0347,0.41222 3e-5,0.63261 -0.0347,0.2204 -0.1,0.46936 -0.16101,0.62265 -0.061,0.15329 -2.1021,2.22614 -3.15101,3.29138 0,0 3.09619,3.13896 3.09619,3.13896 0.075,0.2251 0.15007,0.45021 0.1847,0.7215 0.0346,0.27128 0.0289,0.58873 -0.0144,0.85712 -0.0433,0.2684 -0.12409,0.48773 -0.25974,0.70418 -0.13564,0.21645 -0.32611,0.43 -0.50793,0.58007 -0.18182,0.15007 -0.35497,0.23665 -0.54544,0.3088 -0.19047,0.0721 -0.39826,0.12987 -0.58008,0.15585 -0.18183,0.026 -0.33766,0.0202 -0.49062,0.003 -0.15296,-0.0173 -0.30301,-0.0462 -0.44534,-0.0934 -0.14233,-0.0472 -0.45796,-0.20098 -0.68306,-0.31065 0,0 -2.90905,-2.89173 -2.90905,-2.89173 0,0 -3.03026,2.94368 -3.03026,2.94368 0,0 -0.34631,0.2251 -0.34631,0.2251 0,0 -0.46753,0.13853 -0.46753,0.13853 -0.2886,-0.0115 -0.57719,-0.0231 -0.81096,-0.0548 -0.23377,-0.0317 -0.41269,-0.0837 -0.58585,-0.16449 -0.17316,-0.0808 -0.34054,-0.19048 -0.4935,-0.30592 -0.15295,-0.11544 -0.29148,-0.23664 -0.40692,-0.39538 -0.11544,-0.15874 -0.20779,-0.35496 -0.27128,-0.55121 -0.0635,-0.19624 -0.0981,-0.3925 -0.10679,-0.60317 -0.009,-0.21068 0.009,-0.43578 0.0461,-0.62914 0.0375,-0.19335 0.0952,-0.35497 0.15969,-0.47254 0.0645,-0.11756 2.11732,-2.23737 3.17935,-3.33404 0,0 -2.8571,-2.78784 -2.8571,-2.78784 -0.15584,-0.28282 -0.31168,-0.56564 -0.40116,-0.87156 -0.0895,-0.30591 -0.11257,-0.63491 -0.0895,-0.90908 0.0231,-0.27417 0.0924,-0.49349 0.19336,-0.68974 0.10101,-0.19625 0.23376,-0.3694 0.39537,-0.52813 0.16162,-0.15873 0.35209,-0.30302 0.55988,-0.40692 0.20779,-0.10389 0.43289,-0.16739 0.65223,-0.20202 0.21934,-0.0346 0.43289,-0.0404 0.65222,-0.0231 0.21934,0.0173 0.44444,0.0577 0.63203,0.12987 0.18759,0.0722 0.33766,0.17604 0.90043,0.71284 0.56277,0.5368 1.5382,1.50646 2.03748,1.97975 0.49928,0.47329 0.52238,0.45019 0.53393,0.43864 z"
       id="path2"
       inkscape:path-effect="#path-effect3"
       inkscape:original-d="m 113.46101,142.41056 2.73589,-2.66663 c 0,0 0.32323,-0.27705 0.48485,-0.41558 0.30014,-0.0693 0.60027,-0.13852 0.90042,-0.20779 0.20001,-0.004 0.40001,-0.009 0.60002,-0.013 0.26121,0.1306 0.52241,0.26121 0.78362,0.39181 0.1102,0.11836 0.22039,0.23672 0.33059,0.35508 0.11428,0.16326 0.22856,0.32651 0.34284,0.48976 0.0816,0.24897 0.16325,0.49793 0.24488,0.74689 -0.004,0.19183 -0.008,0.38365 -0.0122,0.57547 -0.0653,0.24897 -0.13061,0.49793 -0.19591,0.74689 -0.0531,0.0612 -3.14673,3.19571 -3.14673,3.19571 l 3.09619,3.13896 c 0,0 0.15007,0.45021 0.2251,0.67531 -0.006,0.31747 -0.0115,0.63492 -0.0173,0.95237 -0.0808,0.21934 -0.16161,0.43867 -0.24242,0.658 -0.19048,0.21357 -0.38095,0.42712 -0.57142,0.64068 -0.17316,0.0866 -0.34632,0.17316 -0.51948,0.25974 -0.20779,0.0577 -0.41557,0.11544 -0.62336,0.17316 -0.15585,-0.006 -0.31169,-0.0115 -0.46753,-0.0173 -0.15007,-0.0289 -0.30014,-0.0577 -0.45021,-0.0866 -0.13276,-0.0693 -0.67531,-0.329 -0.67531,-0.329 l -2.90905,-2.89173 -3.03026,2.94368 -0.34631,0.2251 -0.46753,0.13853 c 0,0 -0.57719,-0.0231 -0.86579,-0.0346 -0.17893,-0.052 -0.35786,-0.1039 -0.53679,-0.15584 -0.16739,-0.10967 -0.33477,-0.21934 -0.50215,-0.329 -0.13853,-0.12122 -0.27706,-0.24242 -0.41558,-0.36363 -0.0924,-0.19625 -0.18471,-0.39249 -0.27706,-0.58874 -0.0346,-0.19625 -0.0693,-0.39249 -0.10389,-0.58874 0.0173,-0.22511 0.0346,-0.45021 0.0519,-0.67531 0.0577,-0.16162 0.11544,-0.32323 0.17316,-0.48484 0.0577,-0.0866 3.18609,-3.29 3.18609,-3.29 l -2.8571,-2.78784 c 0,0 -0.31169,-0.56564 -0.46753,-0.84847 -0.0231,-0.329 -0.0462,-0.658 -0.0693,-0.987 0.0693,-0.21933 0.13853,-0.43866 0.20779,-0.658 0.13276,-0.17316 0.26551,-0.34631 0.39826,-0.51947 0.19048,-0.1443 0.38095,-0.28859 0.57142,-0.43289 0.22511,-0.0635 0.45021,-0.12698 0.67532,-0.19048 0.21356,-0.006 0.42712,-0.0115 0.64068,-0.0173 0.22511,0.0404 0.45021,0.0808 0.67531,0.12121 0.15008,0.1039 0.30015,0.20779 0.45021,0.31168 0.97548,0.96971 1.95091,1.93937 2.92637,2.90905 0.0231,-0.0231 0.0462,-0.0462 0.0693,-0.0693 z"
       transform="translate(-1.7631496,1.3713394)" /></g></svg>
