<?xml version="1.0" encoding="UTF-8" standalone="no"?>
<!-- Created with Inkscape (http://www.inkscape.org/) -->

<svg
   width="50.395451mm"
   height="43.506401mm"
   viewBox="0 0 50.39545 43.506401"
   version="1.1"
   id="svg1"
   xml:space="preserve"
   inkscape:version="1.3.2 (091e20e, 2023-11-25, custom)"
   sodipodi:docname="volume.svg"
   inkscape:export-filename="volume2.svg"
   inkscape:export-xdpi="96"
   inkscape:export-ydpi="96"
   xmlns:inkscape="http://www.inkscape.org/namespaces/inkscape"
   xmlns:sodipodi="http://sodipodi.sourceforge.net/DTD/sodipodi-0.dtd"
   xmlns="http://www.w3.org/2000/svg"
   xmlns:svg="http://www.w3.org/2000/svg"><sodipodi:namedview
     id="namedview1"
     pagecolor="#ffffff"
     bordercolor="#eeeeee"
     borderopacity="1"
     inkscape:showpageshadow="0"
     inkscape:pageopacity="0"
     inkscape:pagecheckerboard="0"
     inkscape:deskcolor="#505050"
     inkscape:document-units="mm"
     inkscape:zoom="2.701132"
     inkscape:cx="136.97961"
     inkscape:cy="111.61987"
     inkscape:window-width="1920"
     inkscape:window-height="1051"
     inkscape:window-x="-9"
     inkscape:window-y="-9"
     inkscape:window-maximized="1"
     inkscape:current-layer="layer1" /><defs
     id="defs1"><inkscape:path-effect
       effect="bspline"
       id="path-effect4"
       is_visible="true"
       lpeversion="1.3"
       weight="33.333333"
       steps="2"
       helper_size="0"
       apply_no_weight="true"
       apply_with_weight="true"
       only_selected="false"
       uniform="false" /><inkscape:path-effect
       effect="bspline"
       id="path-effect2"
       is_visible="true"
       lpeversion="1.3"
       weight="33.333333"
       steps="2"
       helper_size="0"
       apply_no_weight="true"
       apply_with_weight="true"
       only_selected="false"
       uniform="false" /><inkscape:path-effect
       effect="bspline"
       id="path-effect1"
       is_visible="true"
       lpeversion="1.3"
       weight="33.333333"
       steps="2"
       helper_size="0"
       apply_no_weight="true"
       apply_with_weight="true"
       only_selected="false"
       uniform="false" /></defs><g
     inkscape:label="Capa 1"
     inkscape:groupmode="layer"
     id="layer1"
     transform="translate(-75.193172,-126.61858)"><path
       style="fill:#000000;stroke:#000000;stroke-width:0.264583"
       d="m 102.73611,135.19113 c -0.0163,6.67711 -0.049,20.03134 -0.0817,33.38556 -0.29386,0.39181 -0.58772,0.78363 -0.91422,1.02851 -0.32651,0.24488 -0.68568,0.34284 -1.15912,0.3755 -0.47344,0.0327 -1.061151,2e-5 -1.483735,-0.14924 -0.422584,-0.14926 -8.131955,-8.1114 -12.115367,-12.22542 0,0 -9.795275,0.0979 -9.795275,0.0979 -0.35916,-0.19591 -0.718319,-0.39181 -1.012178,-0.66935 -0.29386,-0.27753 -0.522415,-0.63669 -0.637869,-0.99617 -0.115454,-0.35947 -0.178402,-9.99086 -0.211052,-14.98645 0.130604,-0.42446 0.261205,-0.84892 0.555069,-1.17544 0.293864,-0.32651 0.750966,-0.55506 2.611418,-0.6034 1.860452,-0.0483 5.061544,0.081 8.293985,0.2116 0,0 12.440002,-12.53796 12.440002,-12.53796 0.359157,-0.0979 0.71832,-0.1959 1.093812,-0.1959 0.37549,0 0.76729,0.0979 1.14278,0.27753 0.37548,0.17958 0.73464,0.44079 0.94687,0.702 0.21223,0.26121 0.27753,0.52241 0.31018,0.65302 0.0327,0.1306 0.0327,0.1306 0.0164,6.80771 z"
       id="path1"
       inkscape:path-effect="#path-effect1"
       inkscape:original-d="m 102.75244,128.51402 c -0.0327,13.35422 -0.098,40.06267 -0.098,40.06267 0,0 -0.58772,0.78363 -0.88158,1.17544 -0.35916,0.0979 -0.71832,0.19591 -1.07748,0.29386 -0.58772,-0.0327 -1.175429,-0.0653 -1.763146,-0.0979 -0.22856,-0.29387 -11.950236,-12.34205 -11.950236,-12.34205 l -9.795275,0.0979 c 0,0 -0.71832,-0.39181 -1.077481,-0.58772 -0.22856,-0.35916 -0.457113,-0.71832 -0.685668,-1.07748 -0.09796,-0.35917 -0.09795,-14.98677 -0.09795,-14.98677 0,0 0.261207,-0.84892 0.391811,-1.27339 0.457123,-0.22856 0.914225,-0.45711 1.371338,-0.68567 3.265159,0.098 9.697323,0.39182 9.697323,0.39182 l 12.440002,-12.53796 c 0,0 0.71832,-0.1959 1.077472,-0.29385 0.39182,0.098 0.78363,0.1959 1.17544,0.29385 0.35916,0.26122 0.71832,0.52242 1.07748,0.78363 0.0653,0.26121 0.1306,0.52241 0.1959,0.78362 z" /><path
       style="fill:#000000;stroke:#000000;stroke-width:0.264583"
       d="m 116.26992,147.58216 c 0.0979,0.55507 0.19591,1.17543 0.0816,1.97539 -0.11429,0.79995 -0.44079,1.77946 -0.88158,2.71002 -0.44079,0.93056 -0.99585,1.81212 -1.59989,2.46514 -0.60405,0.65302 -1.25706,1.07748 -1.79581,1.40399 -0.53874,0.32651 -0.96319,0.55506 -1.42031,0.70199 -0.45712,0.14693 -0.94687,0.21223 -1.32236,0.16325 -0.37549,-0.049 -0.63669,-0.21223 -0.88158,-0.48976 -0.24488,-0.27754 -0.47343,-0.66934 -0.58771,-1.17544 -0.11428,-0.50609 -0.11428,-1.12645 0.0653,-1.58357 0.17959,-0.45711 0.53874,-0.75096 1.01218,-1.06115 0.47345,-0.31019 1.06116,-0.63669 1.50195,-0.99586 0.44079,-0.35916 0.73464,-0.75096 0.97952,-1.25706 0.24489,-0.50609 0.44079,-1.12645 0.47344,-1.73049 0.0326,-0.60405 -0.098,-1.19176 -0.34284,-1.76315 -0.24489,-0.5714 -0.60404,-1.12646 -1.12646,-1.64887 -0.52242,-0.52242 -1.20808,-1.01218 -1.71417,-1.42032 -0.50609,-0.40814 -0.83259,-0.73464 -0.96319,-1.20808 -0.13061,-0.47345 -0.0653,-1.0938 0.16325,-1.56724 0.22856,-0.47345 0.62037,-0.79995 1.09381,-0.99586 0.47344,-0.1959 1.0285,-0.26121 1.63255,-0.0816 0.60405,0.17959 1.25705,0.60404 1.9264,1.15911 0.66935,0.55507 1.35501,1.24073 1.92641,2.07334 0.57139,0.83261 1.02849,1.81211 1.30603,2.54675 0.27753,0.73465 0.37548,1.22442 0.47343,1.77949 z"
       id="path2"
       inkscape:path-effect="#path-effect2"
       inkscape:original-d="m 116.26992,147.51685 c 0.098,0.62037 0.19591,1.24074 0.29386,1.8611 -0.32652,0.97955 -0.65302,1.95906 -0.97953,2.93859 -0.55507,0.88159 -1.11013,1.76315 -1.66519,2.64472 -0.65303,0.42447 -1.30604,0.84893 -1.95906,1.27339 -0.42447,0.22856 -0.84892,0.45711 -1.27338,0.68567 -0.48978,0.0653 -0.97953,0.1306 -1.4693,0.1959 -0.26121,-0.16326 -0.52241,-0.32651 -0.78362,-0.48976 -0.22856,-0.39182 -0.45711,-0.78362 -0.68567,-1.17544 0,-0.62037 0,-1.24073 0,-1.8611 0.35917,-0.29386 0.71832,-0.58771 1.07748,-0.88157 0.58773,-0.32652 1.17544,-0.65302 1.76315,-0.97953 0.29387,-0.39182 0.58772,-0.78362 0.88158,-1.17543 0.19591,-0.62038 0.39181,-1.24074 0.58771,-1.8611 -0.1306,-0.58773 -0.2612,-1.17544 -0.39181,-1.76315 -0.35916,-0.55508 -0.71832,-1.11014 -1.07748,-1.6652 -0.68568,-0.48977 -1.37134,-0.97953 -2.057,-1.46929 -0.32652,-0.32652 -0.65302,-0.65302 -0.97953,-0.97953 0.0653,-0.62038 0.1306,-1.24073 0.1959,-1.8611 0.39182,-0.32652 0.78363,-0.65302 1.17544,-0.97953 0.55507,-0.0653 1.11013,-0.1306 1.66519,-0.19591 0.65304,0.42448 1.30604,0.84893 1.95906,1.27339 0.68568,0.68568 1.37134,1.37134 2.05701,2.05701 0.45712,0.97955 0.91422,1.95905 1.37134,2.93858 0.0979,0.48977 0.1959,0.97953 0.29385,1.46929 z" /><path
       style="fill:#000000;stroke:#000000;stroke-width:0.264583"
       d="m 116.26992,147.58216 c 0.0979,0.55507 0.19591,1.17543 0.0816,1.97539 -0.11429,0.79995 -0.44079,1.77946 -0.88158,2.71002 -0.44079,0.93056 -0.99585,1.81212 -1.59989,2.46514 -0.60405,0.65302 -1.25706,1.07748 -1.79581,1.40399 -0.53874,0.32651 -0.96319,0.55506 -1.42031,0.70199 -0.45712,0.14693 -0.94687,0.21223 -1.32236,0.16325 -0.37549,-0.049 -0.63669,-0.21223 -0.88158,-0.48976 -0.24488,-0.27754 -0.47343,-0.66934 -0.58771,-1.17544 -0.11428,-0.50609 -0.11428,-1.12645 0.0653,-1.58357 0.17959,-0.45711 0.53874,-0.75096 1.01218,-1.06115 0.47345,-0.31019 1.06116,-0.63669 1.50195,-0.99586 0.44079,-0.35916 0.73464,-0.75096 0.97952,-1.25706 0.24489,-0.50609 0.44079,-1.12645 0.47344,-1.73049 0.0326,-0.60405 -0.098,-1.19176 -0.34284,-1.76315 -0.24489,-0.5714 -0.60404,-1.12646 -1.12646,-1.64887 -0.52242,-0.52242 -1.20808,-1.01218 -1.71417,-1.42032 -0.50609,-0.40814 -0.83259,-0.73464 -0.96319,-1.20808 -0.13061,-0.47345 -0.0653,-1.0938 0.16325,-1.56724 0.22856,-0.47345 0.62037,-0.79995 1.09381,-0.99586 0.47344,-0.1959 1.0285,-0.26121 1.63255,-0.0816 0.60405,0.17959 1.25705,0.60404 1.9264,1.15911 0.66935,0.55507 1.35501,1.24073 1.92641,2.07334 0.57139,0.83261 1.02849,1.81211 1.30603,2.54675 0.27753,0.73465 0.37548,1.22442 0.47343,1.77949 z"
       id="path3"
       inkscape:original-d="m 116.26992,147.51685 c 0.098,0.62037 0.19591,1.24074 0.29386,1.8611 -0.32652,0.97955 -0.65302,1.95906 -0.97953,2.93859 -0.55507,0.88159 -1.11013,1.76315 -1.66519,2.64472 -0.65303,0.42447 -1.30604,0.84893 -1.95906,1.27339 -0.42447,0.22856 -0.84892,0.45711 -1.27338,0.68567 -0.48978,0.0653 -0.97953,0.1306 -1.4693,0.1959 -0.26121,-0.16326 -0.52241,-0.32651 -0.78362,-0.48976 -0.22856,-0.39182 -0.45711,-0.78362 -0.68567,-1.17544 0,-0.62037 0,-1.24073 0,-1.8611 0.35917,-0.29386 0.71832,-0.58771 1.07748,-0.88157 0.58773,-0.32652 1.17544,-0.65302 1.76315,-0.97953 0.29387,-0.39182 0.58772,-0.78362 0.88158,-1.17543 0.19591,-0.62038 0.39181,-1.24074 0.58771,-1.8611 -0.1306,-0.58773 -0.2612,-1.17544 -0.39181,-1.76315 -0.35916,-0.55508 -0.71832,-1.11014 -1.07748,-1.6652 -0.68568,-0.48977 -1.37134,-0.97953 -2.057,-1.46929 -0.32652,-0.32652 -0.65302,-0.65302 -0.97953,-0.97953 0.0653,-0.62038 0.1306,-1.24073 0.1959,-1.8611 0.39182,-0.32652 0.78363,-0.65302 1.17544,-0.97953 0.55507,-0.0653 1.11013,-0.1306 1.66519,-0.19591 0.65304,0.42448 1.30604,0.84893 1.95906,1.27339 0.68568,0.68568 1.37134,1.37134 2.05701,2.05701 0.45712,0.97955 0.91422,1.95905 1.37134,2.93858 0.0979,0.48977 0.1959,0.97953 0.29385,1.46929 z"
       inkscape:path-effect="#path-effect4" /></g></svg>
