<?xml version="1.0" encoding="UTF-8" standalone="no"?>
<!-- Created with Inkscape (http://www.inkscape.org/) -->

<svg
   width="59.57653mm"
   height="51.035549mm"
   viewBox="0 0 59.57653 51.035549"
   version="1.1"
   id="svg1"
   xml:space="preserve"
   inkscape:version="1.3.2 (091e20e, 2023-11-25, custom)"
   sodipodi:docname="volume.svg"
   xmlns:inkscape="http://www.inkscape.org/namespaces/inkscape"
   xmlns:sodipodi="http://sodipodi.sourceforge.net/DTD/sodipodi-0.dtd"
   xmlns="http://www.w3.org/2000/svg"
   xmlns:svg="http://www.w3.org/2000/svg"><sodipodi:namedview
     id="namedview1"
     pagecolor="#ffffff"
     bordercolor="#eeeeee"
     borderopacity="1"
     inkscape:showpageshadow="0"
     inkscape:pageopacity="0"
     inkscape:pagecheckerboard="0"
     inkscape:deskcolor="#505050"
     inkscape:document-units="mm"
     inkscape:zoom="2.701132"
     inkscape:cx="136.7945"
     inkscape:cy="111.43476"
     inkscape:window-width="1366"
     inkscape:window-height="745"
     inkscape:window-x="-8"
     inkscape:window-y="-8"
     inkscape:window-maximized="1"
     inkscape:current-layer="layer1" /><defs
     id="defs1"><inkscape:path-effect
       effect="bspline"
       id="path-effect6"
       is_visible="true"
       lpeversion="1.3"
       weight="33.333333"
       steps="2"
       helper_size="0"
       apply_no_weight="true"
       apply_with_weight="true"
       only_selected="false"
       uniform="false" /><inkscape:path-effect
       effect="bspline"
       id="path-effect5"
       is_visible="true"
       lpeversion="1.3"
       weight="33.333333"
       steps="2"
       helper_size="0"
       apply_no_weight="true"
       apply_with_weight="true"
       only_selected="false"
       uniform="false" /><inkscape:path-effect
       effect="bspline"
       id="path-effect4"
       is_visible="true"
       lpeversion="1.3"
       weight="33.333333"
       steps="2"
       helper_size="0"
       apply_no_weight="true"
       apply_with_weight="true"
       only_selected="false"
       uniform="false" /><inkscape:path-effect
       effect="bspline"
       id="path-effect2"
       is_visible="true"
       lpeversion="1.3"
       weight="33.333333"
       steps="2"
       helper_size="0"
       apply_no_weight="true"
       apply_with_weight="true"
       only_selected="false"
       uniform="false" /><inkscape:path-effect
       effect="bspline"
       id="path-effect1"
       is_visible="true"
       lpeversion="1.3"
       weight="33.333333"
       steps="2"
       helper_size="0"
       apply_no_weight="true"
       apply_with_weight="true"
       only_selected="false"
       uniform="false" /></defs><g
     inkscape:label="Capa 1"
     inkscape:groupmode="layer"
     id="layer1"
     transform="translate(-75.193202,-122.86907)"><path
       style="fill:#000000;stroke:#000000;stroke-width:0.264583"
       d="m 102.73611,135.19113 c -0.0163,6.67711 -0.049,20.03134 -0.0817,33.38556 -0.29386,0.39181 -0.58772,0.78363 -0.91422,1.02851 -0.32651,0.24488 -0.68568,0.34284 -1.15912,0.3755 -0.47344,0.0327 -1.061151,2e-5 -1.483735,-0.14924 -0.422584,-0.14926 -8.131955,-8.1114 -12.115367,-12.22542 0,0 -9.795275,0.0979 -9.795275,0.0979 -0.35916,-0.19591 -0.718319,-0.39181 -1.012178,-0.66935 -0.29386,-0.27753 -0.522415,-0.63669 -0.637869,-0.99617 -0.115454,-0.35947 -0.178402,-9.99086 -0.211052,-14.98645 0.130604,-0.42446 0.261205,-0.84892 0.555069,-1.17544 0.293864,-0.32651 0.750966,-0.55506 2.611418,-0.6034 1.860452,-0.0483 5.061544,0.081 8.293985,0.2116 0,0 12.440002,-12.53796 12.440002,-12.53796 0.359157,-0.0979 0.71832,-0.1959 1.093812,-0.1959 0.37549,0 0.76729,0.0979 1.14278,0.27753 0.37548,0.17958 0.73464,0.44079 0.94687,0.702 0.21223,0.26121 0.27753,0.52241 0.31018,0.65302 0.0327,0.1306 0.0327,0.1306 0.0164,6.80771 z"
       id="path1"
       inkscape:path-effect="#path-effect1"
       inkscape:original-d="m 102.75244,128.51402 c -0.0327,13.35422 -0.098,40.06267 -0.098,40.06267 0,0 -0.58772,0.78363 -0.88158,1.17544 -0.35916,0.0979 -0.71832,0.19591 -1.07748,0.29386 -0.58772,-0.0327 -1.175429,-0.0653 -1.763146,-0.0979 -0.22856,-0.29387 -11.950236,-12.34205 -11.950236,-12.34205 l -9.795275,0.0979 c 0,0 -0.71832,-0.39181 -1.077481,-0.58772 -0.22856,-0.35916 -0.457113,-0.71832 -0.685668,-1.07748 -0.09796,-0.35917 -0.09795,-14.98677 -0.09795,-14.98677 0,0 0.261207,-0.84892 0.391811,-1.27339 0.457123,-0.22856 0.914225,-0.45711 1.371338,-0.68567 3.265159,0.098 9.697323,0.39182 9.697323,0.39182 l 12.440002,-12.53796 c 0,0 0.71832,-0.1959 1.077472,-0.29385 0.39182,0.098 0.78363,0.1959 1.17544,0.29385 0.35916,0.26122 0.71832,0.52242 1.07748,0.78363 0.0653,0.26121 0.1306,0.52241 0.1959,0.78362 z" /><path
       style="fill:#000000;stroke:#000000;stroke-width:0.264583"
       d="m 116.26992,147.58216 c 0.0979,0.55507 0.19591,1.17543 0.0816,1.97539 -0.11429,0.79995 -0.44079,1.77946 -0.88158,2.71002 -0.44079,0.93056 -0.99585,1.81212 -1.59989,2.46514 -0.60405,0.65302 -1.25706,1.07748 -1.79581,1.40399 -0.53874,0.32651 -0.96319,0.55506 -1.42031,0.70199 -0.45712,0.14693 -0.94687,0.21223 -1.32236,0.16325 -0.37549,-0.049 -0.63669,-0.21223 -0.88158,-0.48976 -0.24488,-0.27754 -0.47343,-0.66934 -0.58771,-1.17544 -0.11428,-0.50609 -0.11428,-1.12645 0.0653,-1.58357 0.17959,-0.45711 0.53874,-0.75096 1.01218,-1.06115 0.47345,-0.31019 1.06116,-0.63669 1.50195,-0.99586 0.44079,-0.35916 0.73464,-0.75096 0.97952,-1.25706 0.24489,-0.50609 0.44079,-1.12645 0.47344,-1.73049 0.0326,-0.60405 -0.098,-1.19176 -0.34284,-1.76315 -0.24489,-0.5714 -0.60404,-1.12646 -1.12646,-1.64887 -0.52242,-0.52242 -1.20808,-1.01218 -1.71417,-1.42032 -0.50609,-0.40814 -0.83259,-0.73464 -0.96319,-1.20808 -0.13061,-0.47345 -0.0653,-1.0938 0.16325,-1.56724 0.22856,-0.47345 0.62037,-0.79995 1.09381,-0.99586 0.47344,-0.1959 1.0285,-0.26121 1.63255,-0.0816 0.60405,0.17959 1.25705,0.60404 1.9264,1.15911 0.66935,0.55507 1.35501,1.24073 1.92641,2.07334 0.57139,0.83261 1.02849,1.81211 1.30603,2.54675 0.27753,0.73465 0.37548,1.22442 0.47343,1.77949 z"
       id="path2"
       inkscape:path-effect="#path-effect2"
       inkscape:original-d="m 116.26992,147.51685 c 0.098,0.62037 0.19591,1.24074 0.29386,1.8611 -0.32652,0.97955 -0.65302,1.95906 -0.97953,2.93859 -0.55507,0.88159 -1.11013,1.76315 -1.66519,2.64472 -0.65303,0.42447 -1.30604,0.84893 -1.95906,1.27339 -0.42447,0.22856 -0.84892,0.45711 -1.27338,0.68567 -0.48978,0.0653 -0.97953,0.1306 -1.4693,0.1959 -0.26121,-0.16326 -0.52241,-0.32651 -0.78362,-0.48976 -0.22856,-0.39182 -0.45711,-0.78362 -0.68567,-1.17544 0,-0.62037 0,-1.24073 0,-1.8611 0.35917,-0.29386 0.71832,-0.58771 1.07748,-0.88157 0.58773,-0.32652 1.17544,-0.65302 1.76315,-0.97953 0.29387,-0.39182 0.58772,-0.78362 0.88158,-1.17543 0.19591,-0.62038 0.39181,-1.24074 0.58771,-1.8611 -0.1306,-0.58773 -0.2612,-1.17544 -0.39181,-1.76315 -0.35916,-0.55508 -0.71832,-1.11014 -1.07748,-1.6652 -0.68568,-0.48977 -1.37134,-0.97953 -2.057,-1.46929 -0.32652,-0.32652 -0.65302,-0.65302 -0.97953,-0.97953 0.0653,-0.62038 0.1306,-1.24073 0.1959,-1.8611 0.39182,-0.32652 0.78363,-0.65302 1.17544,-0.97953 0.55507,-0.0653 1.11013,-0.1306 1.66519,-0.19591 0.65304,0.42448 1.30604,0.84893 1.95906,1.27339 0.68568,0.68568 1.37134,1.37134 2.05701,2.05701 0.45712,0.97955 0.91422,1.95905 1.37134,2.93858 0.0979,0.48977 0.1959,0.97953 0.29385,1.46929 z" /><path
       style="fill:#000000;stroke:#000000;stroke-width:0.264583"
       d="m 116.26992,147.58216 c 0.0979,0.55507 0.19591,1.17543 0.0816,1.97539 -0.11429,0.79995 -0.44079,1.77946 -0.88158,2.71002 -0.44079,0.93056 -0.99585,1.81212 -1.59989,2.46514 -0.60405,0.65302 -1.25706,1.07748 -1.79581,1.40399 -0.53874,0.32651 -0.96319,0.55506 -1.42031,0.70199 -0.45712,0.14693 -0.94687,0.21223 -1.32236,0.16325 -0.37549,-0.049 -0.63669,-0.21223 -0.88158,-0.48976 -0.24488,-0.27754 -0.47343,-0.66934 -0.58771,-1.17544 -0.11428,-0.50609 -0.11428,-1.12645 0.0653,-1.58357 0.17959,-0.45711 0.53874,-0.75096 1.01218,-1.06115 0.47345,-0.31019 1.06116,-0.63669 1.50195,-0.99586 0.44079,-0.35916 0.73464,-0.75096 0.97952,-1.25706 0.24489,-0.50609 0.44079,-1.12645 0.47344,-1.73049 0.0326,-0.60405 -0.098,-1.19176 -0.34284,-1.76315 -0.24489,-0.5714 -0.60404,-1.12646 -1.12646,-1.64887 -0.52242,-0.52242 -1.20808,-1.01218 -1.71417,-1.42032 -0.50609,-0.40814 -0.83259,-0.73464 -0.96319,-1.20808 -0.13061,-0.47345 -0.0653,-1.0938 0.16325,-1.56724 0.22856,-0.47345 0.62037,-0.79995 1.09381,-0.99586 0.47344,-0.1959 1.0285,-0.26121 1.63255,-0.0816 0.60405,0.17959 1.25705,0.60404 1.9264,1.15911 0.66935,0.55507 1.35501,1.24073 1.92641,2.07334 0.57139,0.83261 1.02849,1.81211 1.30603,2.54675 0.27753,0.73465 0.37548,1.22442 0.47343,1.77949 z"
       id="path3"
       inkscape:path-effect="#path-effect4"
       inkscape:original-d="m 116.26992,147.51685 c 0.098,0.62037 0.19591,1.24074 0.29386,1.8611 -0.32652,0.97955 -0.65302,1.95906 -0.97953,2.93859 -0.55507,0.88159 -1.11013,1.76315 -1.66519,2.64472 -0.65303,0.42447 -1.30604,0.84893 -1.95906,1.27339 -0.42447,0.22856 -0.84892,0.45711 -1.27338,0.68567 -0.48978,0.0653 -0.97953,0.1306 -1.4693,0.1959 -0.26121,-0.16326 -0.52241,-0.32651 -0.78362,-0.48976 -0.22856,-0.39182 -0.45711,-0.78362 -0.68567,-1.17544 0,-0.62037 0,-1.24073 0,-1.8611 0.35917,-0.29386 0.71832,-0.58771 1.07748,-0.88157 0.58773,-0.32652 1.17544,-0.65302 1.76315,-0.97953 0.29387,-0.39182 0.58772,-0.78362 0.88158,-1.17543 0.19591,-0.62038 0.39181,-1.24074 0.58771,-1.8611 -0.1306,-0.58773 -0.2612,-1.17544 -0.39181,-1.76315 -0.35916,-0.55508 -0.71832,-1.11014 -1.07748,-1.6652 -0.68568,-0.48977 -1.37134,-0.97953 -2.057,-1.46929 -0.32652,-0.32652 -0.65302,-0.65302 -0.97953,-0.97953 0.0653,-0.62038 0.1306,-1.24073 0.1959,-1.8611 0.39182,-0.32652 0.78363,-0.65302 1.17544,-0.97953 0.55507,-0.0653 1.11013,-0.1306 1.66519,-0.19591 0.65304,0.42448 1.30604,0.84893 1.95906,1.27339 0.68568,0.68568 1.37134,1.37134 2.05701,2.05701 0.45712,0.97955 0.91422,1.95905 1.37134,2.93858 0.0979,0.48977 0.1959,0.97953 0.29385,1.46929 z" /><path
       style="fill:#000000;stroke:#000000;stroke-width:0.264583"
       d="m 114.73534,131.74646 c 0.52241,0.29386 1.56723,0.88157 2.64472,1.61623 1.0775,0.73465 2.1876,1.6162 3.10184,2.59575 0.91424,0.97954 1.63254,2.057 2.31822,3.28142 0.68567,1.22442 1.33867,2.59573 1.77946,3.7875 0.44079,1.19177 0.66934,2.20393 0.78362,3.31408 0.11428,1.11014 0.11428,2.31819 0.049,3.54261 -0.0653,1.22443 -0.19591,2.46514 -0.52242,3.62425 -0.32651,1.15912 -0.84891,2.23658 -1.43664,3.2651 -0.58772,1.02852 -1.24073,2.00802 -2.08966,3.03654 -0.84894,1.02851 -1.89375,2.10597 -2.93859,2.97122 -1.04484,0.86526 -2.08965,1.51826 -2.93858,1.95905 -0.84893,0.44079 -1.50193,0.66934 -2.04068,0.68567 -0.53874,0.0163 -0.96319,-0.17957 -1.28971,-0.47344 -0.32651,-0.29386 -0.55506,-0.68567 -0.68567,-1.24074 -0.13061,-0.55507 -0.16327,-1.27338 0.34282,-1.89375 0.50609,-0.62037 1.5509,-1.14278 2.59574,-1.77948 1.04484,-0.6367 2.08965,-1.38765 2.92225,-2.17129 0.83261,-0.78363 1.45296,-1.59988 2.04068,-2.71003 0.58773,-1.11014 1.14278,-2.5141 1.42032,-4.03238 0.27753,-1.51829 0.27753,-3.1508 0.0163,-4.68541 -0.26122,-1.53461 -0.78362,-2.97122 -1.43665,-4.24462 -0.65303,-1.2734 -1.43663,-2.38351 -2.28556,-3.28142 -0.84894,-0.8979 -1.76314,-1.58355 -2.6284,-2.1223 -0.86526,-0.53874 -1.68152,-0.93055 -2.23659,-1.45297 -0.55506,-0.52242 -0.84891,-1.17542 -0.86524,-1.74681 -0.0163,-0.5714 0.24488,-1.06116 0.58772,-1.43665 0.34284,-0.37549 0.76729,-0.63669 1.15911,-0.73464 0.39181,-0.098 0.75096,-0.0326 0.93055,0 0.17958,0.0326 0.17962,0.0326 0.70204,0.32651 z"
       id="path4"
       inkscape:path-effect="#path-effect5"
       inkscape:original-d="m 114.21292,131.4526 c 1.04483,0.58772 2.08965,1.17543 3.13448,1.76315 1.11016,0.88159 2.22026,1.76315 3.3304,2.64472 0.71833,1.07751 1.43664,2.15497 2.15496,3.23244 0.65303,1.37137 1.30603,2.74268 1.95905,4.11402 0.22856,1.0122 0.45712,2.02436 0.68567,3.03654 0,1.20811 0,2.41616 0,3.62425 -0.1306,1.24076 -0.2612,2.48147 -0.39181,3.7222 -0.52242,1.0775 -1.04483,2.15496 -1.56724,3.23245 -0.65304,0.97954 -1.30604,1.95905 -1.95906,2.93858 -1.04485,1.0775 -2.08966,2.15496 -3.13449,3.23244 -1.04485,0.65303 -2.08966,1.30603 -3.13449,1.95905 -0.65303,0.22857 -1.30603,0.45712 -1.95905,0.68567 -0.42447,-0.19591 -0.84892,-0.39181 -1.27339,-0.58771 -0.22856,-0.39182 -0.45711,-0.78363 -0.68566,-1.17544 -0.0327,-0.71833 -0.0653,-1.43664 -0.098,-2.15496 1.04485,-0.52242 2.08966,-1.04483 3.13449,-1.56724 1.04485,-0.75099 2.08966,-1.50194 3.13449,-2.25292 0.62038,-0.81629 1.24073,-1.63254 1.8611,-2.44882 0.55508,-1.40401 1.11013,-2.80797 1.6652,-4.21196 0,-1.63258 0,-3.26509 0,-4.89764 -0.52243,-1.43667 -1.04483,-2.87328 -1.56725,-4.30992 -0.78363,-1.11016 -1.56724,-2.22027 -2.35086,-3.3304 -0.91425,-0.68568 -1.82845,-1.37133 -2.74268,-2.057 -0.81629,-0.39182 -1.63255,-0.78363 -2.44882,-1.17544 -0.29386,-0.65303 -0.58771,-1.30603 -0.88157,-1.95905 0.26121,-0.48977 0.52241,-0.97953 0.78362,-1.46929 0.42447,-0.26122 0.84892,-0.52242 1.27339,-0.78363 0.35916,0.0653 0.71831,0.13061 1.07748,0.19591 z" /><path
       style="fill:#000000;stroke:#000000;stroke-width:0.264583"
       d="m 118.83302,123.45313 c 0.40814,0.22856 1.22441,0.68567 2.08967,1.20809 0.86526,0.52242 1.77946,1.11012 2.64472,1.74682 0.86526,0.6367 1.68152,1.32236 2.53045,2.15496 0.84893,0.83261 1.73049,1.81212 2.57942,2.85696 0.84893,1.04484 1.66519,2.15495 2.30188,3.23244 0.6367,1.07749 1.09381,2.1223 1.55092,3.31407 0.45712,1.19177 0.91423,2.53043 1.22441,3.64057 0.31019,1.11014 0.47344,1.9917 0.62037,3.00389 0.14693,1.01219 0.27753,2.15495 0.2612,3.54263 -0.0163,1.38768 -0.17958,3.02019 -0.45711,4.6854 -0.27754,1.66522 -0.66934,3.36304 -1.11013,4.78337 -0.4408,1.42032 -0.93055,2.56308 -1.76316,3.99974 -0.83261,1.43665 -2.00802,3.16712 -3.13448,4.5548 -1.12647,1.38767 -2.20394,2.43248 -3.28142,3.34672 -1.07749,0.91423 -2.15496,1.69783 -3.18347,2.30188 -1.02851,0.60404 -2.00802,1.0285 -2.759,1.35501 -0.75097,0.32651 -1.27338,0.55506 -1.82845,0.58771 -0.55507,0.0326 -1.14277,-0.1306 -1.55091,-0.48977 -0.40814,-0.35916 -0.63669,-0.91422 -0.68567,-1.46929 -0.049,-0.55507 0.0816,-1.11013 0.40814,-1.58357 0.32651,-0.47344 0.84892,-0.86524 1.27339,-1.07748 0.42446,-0.21224 0.75096,-0.2449 1.45296,-0.53877 0.70201,-0.29387 1.77947,-0.84893 2.95492,-1.71419 1.17544,-0.86526 2.4488,-2.04067 3.46099,-3.23244 1.01219,-1.19177 1.76314,-2.39983 2.53045,-3.83649 0.7673,-1.43666 1.55091,-3.10182 2.10598,-4.73438 0.55507,-1.63256 0.88157,-3.23242 1.02849,-4.70173 0.14692,-1.46931 0.11426,-2.80796 -0.0164,-4.03238 -0.13061,-1.22443 -0.35916,-2.33453 -0.70199,-3.59161 -0.34284,-1.25707 -0.79995,-2.66104 -1.4693,-4.08137 -0.66936,-1.42033 -1.55091,-2.85694 -2.44882,-4.03238 -0.89791,-1.17544 -1.81212,-2.08965 -2.79166,-2.98756 -0.97954,-0.89791 -2.02434,-1.77946 -3.15081,-2.51412 -1.12647,-0.73465 -2.33453,-1.32235 -3.13448,-1.82845 -0.79995,-0.50609 -1.19175,-0.93054 -1.38766,-1.40399 -0.19591,-0.47344 -0.19591,-0.99584 -0.0653,-1.40398 0.1306,-0.40815 0.3918,-0.70199 0.75097,-0.9632 0.35916,-0.26121 0.81627,-0.48977 1.28972,-0.53874 0.47344,-0.049 0.96319,0.0816 1.20807,0.14693 0.24488,0.0653 0.24492,0.0653 0.65306,0.2939 z"
       id="path5"
       inkscape:path-effect="#path-effect6"
       inkscape:original-d="m 118.42488,123.22457 c 0.81628,0.45711 1.63255,0.91422 2.44882,1.37134 0.91425,0.58773 1.82845,1.17543 2.74268,1.76315 0.81629,0.68568 1.63255,1.37134 2.44882,2.057 0.88159,0.97955 1.76315,1.95906 2.64472,2.93859 0.81629,1.11015 1.63255,2.22026 2.44882,3.33039 0.45712,1.04485 0.91423,2.08966 1.37134,3.13449 0.45712,1.33871 0.91423,2.67737 1.37134,4.01606 0.16326,0.88159 0.32651,1.76315 0.48976,2.64473 0.13061,1.1428 0.26121,2.28556 0.39181,3.42834 -0.16325,1.63258 -0.3265,3.26509 -0.48976,4.89764 -0.39182,1.69788 -0.78362,3.3957 -1.17543,5.09354 -0.48978,1.14281 -0.97953,2.28557 -1.46929,3.42835 -1.17546,1.73053 -2.35087,3.461 -3.5263,5.1915 -1.0775,1.04485 -2.15497,2.08966 -3.23244,3.13449 -1.07751,0.78363 -2.15497,1.56724 -3.23244,2.35086 -0.97955,0.42447 -1.95906,0.84893 -2.93859,1.27339 -0.52242,0.22856 -1.04483,0.45711 -1.56724,0.68567 -0.58773,-0.16326 -1.17543,-0.32651 -1.76315,-0.48977 -0.22856,-0.55507 -0.45711,-1.11013 -0.68567,-1.66519 0.1306,-0.55508 0.26121,-1.11014 0.39181,-1.6652 0.52242,-0.39182 1.04483,-0.78362 1.56724,-1.17543 0.32652,-0.0327 0.65302,-0.0653 0.97953,-0.098 1.0775,-0.55507 2.15496,-1.11013 3.23244,-1.66519 1.27341,-1.17546 2.54677,-2.35087 3.82016,-3.5263 0.75099,-1.20811 1.50194,-2.41617 2.25291,-3.62425 0.78364,-1.66524 1.56725,-3.3304 2.35087,-4.9956 0.32651,-1.59992 0.65302,-3.19978 0.97953,-4.79968 -0.0327,-1.33872 -0.0653,-2.67737 -0.098,-4.01606 -0.22856,-1.11016 -0.45711,-2.22026 -0.68566,-3.3304 -0.45713,-1.40401 -0.91423,-2.80798 -1.37134,-4.21197 -0.8816,-1.43667 -1.76315,-2.87328 -2.64473,-4.30992 -0.91424,-0.91424 -1.82845,-1.82845 -2.74268,-2.74267 -1.04485,-0.8816 -2.08965,-1.76315 -3.13448,-2.64473 -1.20811,-0.58773 -2.41617,-1.17543 -3.62425,-1.76315 -0.39182,-0.42447 -0.78363,-0.84892 -1.17544,-1.27339 0,-0.52242 0,-1.04482 0,-1.56724 0.26122,-0.29386 0.52242,-0.58771 0.78362,-0.88157 0.45712,-0.22856 0.91423,-0.45712 1.37134,-0.68567 0.48978,0.1306 0.97953,0.26121 1.46929,0.39181 z" /></g></svg>
